<svg width="440" height="440" viewBox="0 0 440 440" fill="none" xmlns="http://www.w3.org/2000/svg">
<g filter="url(#filter0_i)">
<path d="M220 0L410.526 330H29.4744L220 0Z" fill="url(#paint0_radial)"/>
<path d="M220 0L410.526 330H29.4744L220 0Z" fill="url(#paint1_radial)" fill-opacity="0.45"/>
<path d="M220 0L410.526 330H29.4744L220 0Z" fill="url(#paint2_radial)"/>
</g>
<path d="M30.3404 329.5L220 1L409.66 329.5H30.3404Z" stroke="white"/>
<rect x="132" y="236" width="175" height="35" rx="5" fill="url(#paint3_linear)"/>
<path d="M142.5 248L152.125 258.5" stroke="white" stroke-width="4"/>
<path d="M152.125 248L142.5 258.5" stroke="white" stroke-width="4"/>
<path d="M162.625 249H291.25" stroke="white" stroke-width="4"/>
<path d="M162.625 257.75H291.25" stroke="white" stroke-width="4"/>
<rect x="126" y="178" width="187" height="37.4" rx="5" fill="url(#paint4_linear)"/>
<path d="M137.22 191L147.505 202.22" stroke="white" stroke-width="4.5"/>
<path d="M147.505 191L137.22 202.22" stroke="white" stroke-width="4.5"/>
<path d="M158.725 192H296.17" stroke="white" stroke-width="4.5"/>
<path d="M158.725 201.35H296.17" stroke="white" stroke-width="4.5"/>
<rect x="120" y="118" width="200" height="40" rx="5" fill="url(#paint5_linear)"/>
<path d="M132 132L143 144" stroke="white" stroke-width="5"/>
<path d="M143 132L132 144" stroke="white" stroke-width="5"/>
<path d="M155 133H302" stroke="white" stroke-width="5"/>
<path d="M155 143H302" stroke="white" stroke-width="5"/>
<path d="M181.588 293.728V292.3H193.348V293.728H188.287V307H186.67V293.728H181.588ZM192.941 301.876C192.941 301.12 193.067 300.42 193.319 299.776C193.571 299.132 193.914 298.572 194.348 298.096C194.796 297.62 195.328 297.249 195.944 296.983C196.56 296.717 197.218 296.584 197.918 296.584C198.632 296.584 199.29 296.717 199.892 296.983C200.508 297.249 201.04 297.62 201.488 298.096C201.936 298.572 202.286 299.132 202.538 299.776C202.79 300.42 202.916 301.12 202.916 301.876C202.916 302.632 202.783 303.339 202.517 303.997C202.265 304.655 201.915 305.222 201.467 305.698C201.033 306.16 200.508 306.531 199.892 306.811C199.276 307.077 198.618 307.21 197.918 307.21C197.218 307.21 196.56 307.077 195.944 306.811C195.342 306.531 194.817 306.153 194.369 305.677C193.935 305.201 193.585 304.641 193.319 303.997C193.067 303.339 192.941 302.632 192.941 301.876ZM197.918 305.845C198.912 305.845 199.738 305.474 200.396 304.732C201.068 303.976 201.404 303.031 201.404 301.897C201.404 300.763 201.068 299.818 200.396 299.062C199.738 298.306 198.912 297.928 197.918 297.928C196.924 297.928 196.098 298.306 195.44 299.062C194.782 299.818 194.453 300.763 194.453 301.897C194.453 303.031 194.782 303.976 195.44 304.732C196.098 305.474 196.924 305.845 197.918 305.845ZM213.165 307V305.635C212.773 306.125 212.297 306.503 211.737 306.769C211.177 307.021 210.561 307.147 209.889 307.147C209.231 307.147 208.608 307.014 208.02 306.748C207.446 306.468 206.949 306.097 206.529 305.635C206.109 305.159 205.773 304.599 205.521 303.955C205.283 303.311 205.164 302.625 205.164 301.897C205.164 301.155 205.283 300.462 205.521 299.818C205.773 299.174 206.116 298.621 206.55 298.159C206.984 297.683 207.495 297.312 208.083 297.046C208.671 296.766 209.301 296.626 209.973 296.626C210.603 296.626 211.191 296.752 211.737 297.004C212.283 297.242 212.759 297.592 213.165 298.054V291.985L214.698 291.67V307H213.165ZM206.676 301.876C206.676 302.996 207.019 303.934 207.705 304.69C208.391 305.432 209.245 305.803 210.267 305.803C210.869 305.803 211.422 305.684 211.926 305.446C212.43 305.208 212.843 304.872 213.165 304.438V299.356C212.829 298.922 212.402 298.586 211.884 298.348C211.38 298.096 210.841 297.97 210.267 297.97C209.245 297.97 208.391 298.341 207.705 299.083C207.019 299.825 206.676 300.756 206.676 301.876ZM226.311 305.824C225.723 306.286 225.114 306.629 224.484 306.853C223.854 307.077 223.182 307.189 222.468 307.189C221.754 307.189 221.082 307.056 220.452 306.79C219.836 306.51 219.297 306.132 218.835 305.656C218.387 305.18 218.03 304.62 217.764 303.976C217.512 303.318 217.386 302.618 217.386 301.876C217.386 301.134 217.505 300.441 217.743 299.797C217.995 299.139 218.338 298.579 218.772 298.117C219.206 297.641 219.717 297.27 220.305 297.004C220.893 296.724 221.53 296.584 222.216 296.584C222.888 296.584 223.511 296.717 224.085 296.983C224.659 297.249 225.156 297.613 225.576 298.075C225.996 298.523 226.325 299.069 226.563 299.713C226.801 300.343 226.92 301.022 226.92 301.75V302.212H218.877C218.947 303.248 219.332 304.116 220.032 304.816C220.732 305.502 221.565 305.845 222.531 305.845C223.063 305.845 223.574 305.754 224.064 305.572C224.568 305.376 224.995 305.117 225.345 304.795L226.311 305.824ZM222.195 297.907C221.355 297.907 220.634 298.208 220.032 298.81C219.43 299.412 219.059 300.182 218.919 301.12H225.408C225.296 300.196 224.939 299.433 224.337 298.831C223.749 298.215 223.035 297.907 222.195 297.907ZM232.545 307.189C231.453 307.189 230.557 306.902 229.857 306.328C229.171 305.74 228.828 304.984 228.828 304.06C228.828 303.15 229.178 302.415 229.878 301.855C230.592 301.295 231.523 301.015 232.671 301.015C233.259 301.015 233.812 301.085 234.33 301.225C234.862 301.351 235.352 301.547 235.8 301.813V300.406C235.8 299.566 235.576 298.936 235.128 298.516C234.68 298.082 234.022 297.865 233.154 297.865C232.678 297.865 232.188 297.935 231.684 298.075C231.194 298.215 230.648 298.439 230.046 298.747L229.479 297.571C230.179 297.235 230.844 296.99 231.474 296.836C232.104 296.668 232.727 296.584 233.343 296.584C234.603 296.584 235.576 296.899 236.262 297.529C236.962 298.145 237.312 299.034 237.312 300.196V307H235.8V305.803C235.352 306.265 234.855 306.615 234.309 306.853C233.763 307.077 233.175 307.189 232.545 307.189ZM230.298 304.018C230.298 304.62 230.536 305.103 231.012 305.467C231.488 305.831 232.104 306.013 232.86 306.013C233.434 306.013 233.959 305.915 234.435 305.719C234.925 305.523 235.38 305.229 235.8 304.837V302.863C235.366 302.611 234.918 302.429 234.456 302.317C233.994 302.191 233.476 302.128 232.902 302.128C232.118 302.128 231.488 302.303 231.012 302.653C230.536 303.003 230.298 303.458 230.298 304.018ZM239.441 305.677L240.26 304.669C240.862 305.117 241.422 305.446 241.94 305.656C242.472 305.852 243.011 305.95 243.557 305.95C244.299 305.95 244.915 305.775 245.405 305.425C245.895 305.075 246.14 304.634 246.14 304.102C246.14 303.682 245.993 303.353 245.699 303.115C245.405 302.877 244.936 302.695 244.292 302.569L242.612 302.275C241.618 302.093 240.883 301.785 240.407 301.351C239.945 300.917 239.714 300.329 239.714 299.587C239.714 298.705 240.057 297.984 240.743 297.424C241.443 296.864 242.332 296.584 243.41 296.584C244.11 296.584 244.775 296.689 245.405 296.899C246.035 297.109 246.672 297.431 247.316 297.865L246.56 298.936C246.028 298.558 245.496 298.285 244.964 298.117C244.432 297.935 243.893 297.844 243.347 297.844C242.675 297.844 242.136 297.991 241.73 298.285C241.324 298.579 241.121 298.978 241.121 299.482C241.121 299.902 241.247 300.224 241.499 300.448C241.765 300.672 242.227 300.84 242.885 300.952L244.607 301.267C245.629 301.449 246.378 301.764 246.854 302.212C247.344 302.66 247.589 303.262 247.589 304.018C247.589 304.9 247.204 305.649 246.434 306.265C245.678 306.881 244.733 307.189 243.599 307.189C242.759 307.189 241.982 307.063 241.268 306.811C240.554 306.545 239.945 306.167 239.441 305.677ZM251.734 308.638L252.406 306.979L248.458 296.752H250.159L253.267 305.173L256.564 296.752H258.265L253.183 309.1C252.861 309.926 252.476 310.507 252.028 310.843C251.594 311.193 250.999 311.368 250.243 311.368C250.103 311.368 249.949 311.354 249.781 311.326C249.613 311.312 249.438 311.277 249.256 311.221V309.856C249.466 309.898 249.627 309.919 249.739 309.919C249.865 309.933 249.984 309.94 250.096 309.94C250.488 309.94 250.81 309.835 251.062 309.625C251.328 309.429 251.552 309.1 251.734 308.638Z" fill="white"/>
<defs>
<filter id="filter0_i" x="29.4744" y="0" width="381.051" height="334" filterUnits="userSpaceOnUse" color-interpolation-filters="sRGB">
<feFlood flood-opacity="0" result="BackgroundImageFix"/>
<feBlend mode="normal" in="SourceGraphic" in2="BackgroundImageFix" result="shape"/>
<feColorMatrix in="SourceAlpha" type="matrix" values="0 0 0 0 0 0 0 0 0 0 0 0 0 0 0 0 0 0 127 0" result="hardAlpha"/>
<feOffset dy="4"/>
<feGaussianBlur stdDeviation="5"/>
<feComposite in2="hardAlpha" operator="arithmetic" k2="-1" k3="1"/>
<feColorMatrix type="matrix" values="0 0 0 0 0 0 0 0 0 0 0 0 0 0 0 0 0 0 1 0"/>
<feBlend mode="normal" in2="shape" result="effect1_innerShadow"/>
</filter>
<radialGradient id="paint0_radial" cx="0" cy="0" r="1" gradientUnits="userSpaceOnUse" gradientTransform="translate(220 263.5) rotate(90) scale(93 177.126)">
<stop offset="0.163478" stop-color="#0D4BA8"/>
<stop offset="1" stop-color="#292929"/>
</radialGradient>
<radialGradient id="paint1_radial" cx="0" cy="0" r="1" gradientUnits="userSpaceOnUse" gradientTransform="translate(223 215.5) rotate(95.3322) scale(112.989)">
<stop stop-color="#FF0FE7"/>
<stop offset="1" stop-color="#292929" stop-opacity="0.5"/>
</radialGradient>
<radialGradient id="paint2_radial" cx="0" cy="0" r="1" gradientUnits="userSpaceOnUse" gradientTransform="translate(220 158.5) rotate(-90) scale(111 151.844)">
<stop stop-color="#FF367E" stop-opacity="0.3"/>
<stop offset="1" stop-color="#292929" stop-opacity="0.3"/>
</radialGradient>
<linearGradient id="paint3_linear" x1="134.187" y1="238.188" x2="307" y2="267.938" gradientUnits="userSpaceOnUse">
<stop stop-color="#1C4EFD"/>
<stop offset="1" stop-color="#20E4FE"/>
</linearGradient>
<linearGradient id="paint4_linear" x1="128.337" y1="180.338" x2="313" y2="212.128" gradientUnits="userSpaceOnUse">
<stop stop-color="#720FD5"/>
<stop offset="1" stop-color="#D766FF"/>
</linearGradient>
<linearGradient id="paint5_linear" x1="122.5" y1="120.5" x2="320" y2="154.5" gradientUnits="userSpaceOnUse">
<stop stop-color="#D852D5"/>
<stop offset="1" stop-color="#FE3057"/>
</linearGradient>
</defs>
</svg>
